<svg width="700" height="550" viewBox="0 0 700 550" fill="none" xmlns="http://www.w3.org/2000/svg">
<g clip-path="url(#clip0_3_499)">
<path d="M486.779 46.8137C490.943 112.586 545.708 70.7902 562.737 55.6439C547.446 82.4722 533.818 134.684 609.762 118.988C590.047 153.244 603.739 175.287 641.286 166.51C623.619 188.248 623.959 232.465 678.757 211.775C649.266 234.023 656.173 275.134 696.817 272.56C678.66 285.09 648.579 318.805 673.511 353.431C636.204 369.29 653.478 407.895 669.386 434.676C628.855 420.569 599.045 397.262 603.487 467.43C587.195 457.346 552.472 429.347 557.78 513.197C518.616 455.336 490.428 487.291 486.176 517.731C467.941 503.006 429.282 497.514 416.599 541.19C383.721 498.175 351.611 526.514 339.666 546.061C303.578 503.09 272.46 528.879 261.202 546.264C245.674 505.962 211.757 507.05 192.83 520.423C179.685 498.23 148.361 491.48 125.745 524.67C131.323 472.233 97.0683 475.143 79.2435 483.152C103.981 389.487 44.4927 392.989 19.2755 394.85C48.1668 382.699 48.5848 311.217 3.56482 273.575C45.7602 260.741 37.1498 204.791 27.5702 178.42C53.9305 180.415 87.4576 169.499 75.1809 119.716C109.24 117.56 119.964 104.668 104.868 45.3086C152.565 92.5449 194.599 75.206 200.328 51.6055C212.283 66.2703 240.792 83.5877 259.193 35.5386C286.923 77.1756 315.347 54.5544 319.463 31.723C334.532 53.4688 359.096 54.897 368.364 3.63699C366.823 41.065 381.495 59.3321 416.423 37.9249C411.576 72.9042 452.327 85.334 486.779 46.8137Z" fill="#E9FF65" stroke="black" stroke-width="6" stroke-linecap="round" stroke-linejoin="round"/>
</g>
<defs>
<clipPath id="clip0_3_499">
<rect width="700" height="550" fill="white"/>
</clipPath>
</defs>
</svg>
